<mxfile host="app.diagrams.net" modified="2021-10-08T06:39:03.112Z" agent="5.0 (Windows NT 10.0; Win64; x64) AppleWebKit/537.36 (KHTML, like Gecko) Chrome/92.0.4515.159 Safari/537.36" etag="MGVPcRBeG5OdXc8UnWQY" version="15.4.3" type="github">
  <diagram id="SoEcYwhc6m7pzwqqew_2" name="第 1 页">
    <mxGraphModel dx="1248" dy="686" grid="1" gridSize="10" guides="1" tooltips="1" connect="1" arrows="1" fold="1" page="1" pageScale="1" pageWidth="827" pageHeight="1169" math="0" shadow="0">
      <root>
        <mxCell id="0" />
        <mxCell id="1" parent="0" />
        <mxCell id="ZCuFaapzUTEh5m-6mNR0-1" value="QuorumPeerMain.main服务端启动主类" style="rounded=0;whiteSpace=wrap;html=1;strokeWidth=2;fillColor=#B9E0A5;" vertex="1" parent="1">
          <mxGeometry x="50" y="90" width="130" height="40" as="geometry" />
        </mxCell>
      </root>
    </mxGraphModel>
  </diagram>
</mxfile>
